<?xml version="1.0" encoding="UTF-8" standalone="no"?><!DOCTYPE svg PUBLIC "-//W3C//DTD SVG 1.1//EN" "http://www.w3.org/Graphics/SVG/1.1/DTD/svg11.dtd"><svg width="100%" height="100%" viewBox="0 0 1026 105" version="1.1" xmlns="http://www.w3.org/2000/svg" xmlns:xlink="http://www.w3.org/1999/xlink" xml:space="preserve" style="fill-rule:evenodd;clip-rule:evenodd;stroke-linejoin:round;stroke-miterlimit:1.41421;"><rect id="Artboard_logoweb" x="0" y="0" width="1026" height="105" style="fill:none;"/><g><path d="M61.664,51.596l-30.15,14.07l0,34.354l-28.986,0l0,-95.212l28.986,0l0,37.526l81.988,-37.526l49.511,0l-77.016,35.469l78.814,59.743l-41.969,0l-61.178,-48.424Z" style="fill-rule:nonzero;"/><rect x="164.829" y="4.808" width="28.987" height="95.212" style="fill-rule:nonzero;"/><path d="M205.059,4.808l0,95.212l28.987,0l0,-63.734l110.763,63.734l28.987,0l0,-95.212l-28.987,0l0,63.732l-111.822,-63.732l-27.928,0Z" style="fill-rule:nonzero;"/><path d="M521.609,79.179l-66.226,0c-26.977,0 -43.48,-4.656 -43.48,-26.765c0,-19.149 17.455,-26.025 43.48,-26.025l66.226,0c26.025,0 43.48,6.876 43.48,26.025c0,22.109 -16.504,26.765 -43.48,26.765Zm74.37,-26.765c-0.739,-38.509 -34.276,-49.511 -74.37,-49.511l-66.226,0c-40.094,0 -73.631,11.002 -74.37,49.511c-0.848,38.614 29.409,49.933 74.37,49.933l66.226,0c44.961,0 75.217,-11.319 74.37,-49.933Z" style="fill-rule:nonzero;"/><path d="M603.196,4.808l0,95.212l114.042,0l0,-23.698l-85.056,0l0,-71.514l-28.986,0Z" style="fill-rule:nonzero;"/><path d="M823.578,57.491l-45.279,0l22.64,-35.44l22.639,35.44Zm-4.76,-52.683l-35.758,0l-65.802,95.212l32.689,0l14.705,-21.053l72.574,0l14.705,21.053l32.688,0l-65.801,-95.212Z" style="fill-rule:nonzero;"/><path d="M913.642,61.934l0,15.869l68.975,0c9.522,0 17.245,-1.375 17.245,-8.145c0,-8.359 -7.723,-7.724 -17.245,-7.724l-68.975,0Zm0,-36.18l0,14.493l73.631,0c10.368,0 11.214,-14.493 0,-14.493l-73.631,0Zm82.834,73.737l-111.821,0.529l0,-95.212l107.589,-0.53c17.668,-0.105 28.141,9.944 28.141,24.226c0,9.734 -4.338,16.716 -13.224,20.63c8.675,3.385 17.456,8.357 17.456,23.273c0,15.235 -10.368,26.978 -28.141,27.084Z" style="fill-rule:nonzero;"/></g></svg>