<?xml version="1.0" encoding="UTF-8" standalone="no"?><!DOCTYPE svg PUBLIC "-//W3C//DTD SVG 1.1//EN" "http://www.w3.org/Graphics/SVG/1.1/DTD/svg11.dtd"><svg width="100%" height="100%" viewBox="0 0 1201 157" version="1.1" xmlns="http://www.w3.org/2000/svg" xmlns:xlink="http://www.w3.org/1999/xlink" xml:space="preserve" style="fill-rule:evenodd;clip-rule:evenodd;stroke-linejoin:round;stroke-miterlimit:1.41421;"><rect id="Artboard2" x="0" y="0" width="1200.05" height="156.531" style="fill:none;"/><g><path d="M154.788,78.519l-29.706,13.862l0,33.846l-28.557,0l0,-93.806l28.557,0l0,36.973l80.778,-36.973l48.78,0l-75.878,34.946l77.65,58.86l-41.35,0l-60.274,-47.708Z" style="fill-rule:nonzero;"/><rect x="256.429" y="32.421" width="28.559" height="93.806" style="fill-rule:nonzero;"/><path d="M296.066,32.421l0,93.806l28.559,0l0,-62.793l109.127,62.793l28.559,0l0,-93.806l-28.559,0l0,62.792l-110.17,-62.792l-27.516,0Z" style="fill-rule:nonzero;"/><path d="M607.942,105.694l-65.247,0c-26.58,0 -42.839,-4.587 -42.839,-26.37c0,-18.866 17.198,-25.641 42.839,-25.641l65.247,0c25.641,0 42.839,6.775 42.839,25.641c0,21.783 -16.261,26.37 -42.839,26.37Zm73.273,-26.37c-0.729,-37.94 -33.77,-48.78 -73.273,-48.78l-65.247,0c-39.503,0 -72.544,10.84 -73.273,48.78c-0.835,38.044 28.975,49.196 73.273,49.196l65.247,0c44.298,0 74.107,-11.152 73.273,-49.196Z" style="fill-rule:nonzero;"/><path d="M688.325,32.421l0,93.806l112.359,0l0,-23.348l-83.801,0l0,-70.458l-28.558,0Z" style="fill-rule:nonzero;"/><path d="M905.454,84.327l-44.611,0l22.306,-34.918l22.305,34.918Zm-4.69,-51.906l-35.231,0l-64.83,93.806l32.207,0l14.487,-20.741l71.503,0l14.487,20.741l32.207,0l-64.83,-93.806Z" style="fill-rule:nonzero;"/><path d="M994.188,88.704l0,15.634l67.957,0c9.381,0 16.99,-1.354 16.99,-8.024c0,-8.235 -7.609,-7.61 -16.99,-7.61l-67.957,0Zm0,-35.646l0,14.279l72.544,0c10.215,0 11.048,-14.279 0,-14.279l-72.544,0Zm81.611,72.649l-110.171,0.52l0,-93.806l106.002,-0.522c17.407,-0.104 27.725,9.797 27.725,23.869c0,9.589 -4.274,16.469 -13.028,20.325c8.546,3.335 17.198,8.234 17.198,22.93c0,15.009 -10.215,26.579 -27.726,26.684Z" style="fill-rule:nonzero;"/></g></svg>